<?xml version="1.0" standalone="no"?>
<!DOCTYPE svg PUBLIC "-//W3C//DTD SVG 20010904//EN" "http://www.w3.org/TR/2001/REC-SVG-20010904/DTD/svg10.dtd">
<svg version="1.0" xmlns="http://www.w3.org/2000/svg"
  width="1000.000000pt" height="1000.000000pt" viewBox="0 0 1000.000000 1000.000000"
  preserveAspectRatio="xMidYMid meet">
  <metadata> Created by potrace 1.14, written by Peter Selinger 2001-2017 </metadata>
  <g transform="translate(0.000000,1000.000000) scale(0.100000,-0.100000)"
    fill="#000000" stroke="none">
    <path
      d="M0 5000 l0 -5000 5000 0 5000 0 0 5000 0 5000 -5000 0 -5000 0 0
-5000z m3420 1525 c334 -74 579 -304 659 -620 33 -128 41 -207 41 -422 l0
-203 -702 -2 -703 -3 3 -50 c9 -139 59 -253 151 -346 113 -113 209 -145 431
-143 220 2 432 47 627 135 35 16 67 29 69 29 2 0 3 -102 2 -227 l-3 -228 -75
-32 c-193 -82 -380 -115 -660 -116 -204 -1 -294 10 -444 54 -371 110 -611 389
-681 795 -22 127 -23 390 -1 529 75 491 362 793 822 865 89 14 376 4 464 -15z
m2615 1 c299 -82 508 -345 580 -727 37 -200 37 -542 0 -738 -75 -390 -293
-659 -602 -743 -104 -28 -315 -30 -418 -3 -120 30 -241 103 -340 204 -56 58
-90 68 -81 24 20 -93 25 -232 26 -675 l0 -498 -295 0 -295 0 0 1570 0 1570
241 -2 242 -3 40 -137 c43 -148 57 -165 92 -112 57 87 207 208 302 244 108 41
170 50 313 46 83 -2 158 -10 195 -20z m1680 -1735 c157 -266 284 -486 282
-488 -2 -2 -263 -2 -580 -1 l-576 3 286 488 c158 268 291 486 295 485 5 -2
137 -221 293 -487z" />
    <path
      d="M3023 6116 c-102 -33 -195 -115 -238 -209 -29 -63 -55 -160 -55 -204
l0 -33 420 0 421 0 -6 53 c-22 183 -103 316 -228 373 -53 24 -76 29 -167 31
-69 2 -120 -2 -147 -11z" />
    <path
      d="M5491 6065 c-66 -19 -104 -42 -153 -92 -97 -100 -147 -324 -135 -603
15 -333 94 -505 263 -570 84 -33 248 -34 316 -3 111 51 187 159 230 329 20 78
22 115 22 304 1 244 -11 316 -67 435 -42 87 -101 149 -175 183 -71 33 -215 41
-301 17z" />
  </g>
</svg>